<?xml version="1.0" ?><svg id="Layer_1" style="enable-background:new 0 0 32 32;" version="1.1" viewBox="0 0 32 32" xml:space="preserve" xmlns="http://www.w3.org/2000/svg" xmlns:xlink="http://www.w3.org/1999/xlink"><style type="text/css">
	.st0{fill:#222A30;}
	.st1{fill:#868687;}
	.st2{fill-rule:evenodd;clip-rule:evenodd;fill:#222A30;stroke:#222A30;stroke-width:0.776;}
	.st3{fill-rule:evenodd;clip-rule:evenodd;fill:#222A30;fill-opacity:0;stroke:#222A30;stroke-width:0.776;}
	.st4{fill:none;stroke:#222A30;stroke-width:1.5556;stroke-opacity:0.5;}
	.st5{fill:none;stroke:#222A30;stroke-width:1.5556;}
	.st6{fill:#070707;}
</style><path class="st0" d="M9,23c0,0.7,0.5,1.2,1.2,1.2h1.2v4.1c0,0.9,0.8,1.8,1.8,1.8c0.9,0,1.8-0.8,1.8-1.8v-4.1h2.3  v4.1c0,0.9,0.8,1.8,1.8,1.8s1.8-0.8,1.8-1.8v-4.1h1.2c0.7,0,1.2-0.5,1.2-1.2V11.3H9V23z M6.1,11.3c-0.9,0-1.8,0.8-1.8,1.8v8.2  c0,0.9,0.8,1.8,1.8,1.8s1.8-0.8,1.8-1.8v-8.2C7.8,12.1,7,11.3,6.1,11.3z M25.9,11.3c-0.9,0-1.8,0.8-1.8,1.8v8.2  c0,0.9,0.8,1.8,1.8,1.8s1.8-0.8,1.8-1.8v-8.2C27.7,12.1,26.9,11.3,25.9,11.3z M20.1,4.5L21.6,3c0.2-0.2,0.2-0.6,0-0.8  C21.4,2,21,2,20.8,2.2L19,4c-0.8-0.6-1.9-0.8-3-0.8s-2.2,0.2-3.2,0.7l-1.6-1.8C11,2,10.5,2,10.3,2.1c-0.1,0.2-0.1,0.7,0,0.9l1.5,1.5  C10.2,5.8,9,7.8,9,10.1h14C23,7.8,21.8,5.7,20.1,4.5z M13.7,7.8h-1.2V6.6h1.2V7.8z M19.5,7.8h-1.2V6.6h1.2V7.8z" id="android_1_"/></svg>